<svg width="61" height="18" viewBox="0 0 61 18" fill="none" xmlns="http://www.w3.org/2000/svg">
<path d="M0 0H3.0041V3.34588H0V0ZM0.0834473 5.29412H3.0041V16.9412H0.0834473V5.29412Z" fill="#424143"/>
<path d="M15.4378 15.12C15.2292 15.5859 14.0192 17.2377 11.4741 17.2377C8.47 17.2377 6.0083 14.9506 6.0083 11.1388C6.0083 7.32708 8.47 5.04 11.4741 5.04C13.9775 5.04 15.1875 6.56471 15.4378 7.03059V0H18.3585V16.9835H15.4378V15.12ZM12.2251 7.6235C10.2224 7.6235 8.92899 9.10591 8.92899 11.1388C8.92899 13.1294 10.2224 14.6541 12.2251 14.6541C14.1861 14.6541 15.4378 13.1718 15.4378 11.1388C15.4795 9.14825 14.1861 7.6235 12.2251 7.6235Z" fill="#424143"/>
<path d="M33.4206 11.1389C33.4206 14.6965 30.7503 17.28 27.2455 17.28C23.699 17.28 21.0287 14.6965 21.0287 11.1389C21.0287 7.58121 23.699 4.99768 27.2455 4.99768C30.7503 4.99768 33.4206 7.58121 33.4206 11.1389ZM30.4999 11.1389C30.4999 9.14829 29.1648 7.62355 27.2455 7.62355C25.3262 7.62355 23.991 9.19063 23.991 11.1389C23.991 13.0871 25.3262 14.6541 27.2455 14.6541C29.1648 14.6541 30.4999 13.1295 30.4999 11.1389Z" fill="#424143"/>
<path d="M41.7236 7.62355C39.9712 7.62355 38.7195 9.19063 38.7195 11.1389C38.7195 13.0871 39.9295 14.6541 41.7236 14.6541C43.6429 14.6541 44.2687 13.4259 44.4773 13.1295H47.3145C47.1894 14.3577 45.8125 17.28 41.6819 17.28C38.344 17.28 35.7571 14.7389 35.7571 11.1389C35.7571 7.53888 38.344 4.99768 41.6819 4.99768C45.7708 4.99768 47.1476 7.87771 47.3563 9.14829H44.4773C44.2687 8.8518 43.5594 7.62355 41.7236 7.62355Z" fill="#424143"/>
<path d="M53.9904 12.1977C51.487 12.0283 49.7763 10.8 49.7763 8.5553C49.7763 6.35298 51.7373 4.99768 54.8249 4.99768C58.9555 4.99768 60.1237 7.15768 60.4575 8.30121H57.4117C57.2031 8.04712 56.5355 7.24238 54.8249 7.24238C53.448 7.24238 52.697 7.70829 52.697 8.42829C52.697 9.06355 53.1559 9.48712 54.3242 9.65647L56.2852 9.86829C59.4144 10.1647 60.6662 11.3506 60.6662 13.6377C60.6662 15.84 58.872 17.3224 55.3673 17.3224C51.1115 17.3224 49.6929 14.8235 49.4842 13.7224H52.6135C52.7387 14.0189 53.448 15.0353 55.3673 15.0353C56.9945 15.0353 57.7455 14.4847 57.7455 13.7647C57.7455 13.0447 57.3283 12.6212 56.0348 12.4518C55.2004 12.3247 54.7831 12.2824 53.9904 12.1977Z" fill="#424143"/>
</svg>
