<svg width="102" height="18" viewBox="0 0 102 18" fill="none" xmlns="http://www.w3.org/2000/svg">
<g clip-path="url(#clip0)">
<path d="M95.0682 4.20045L91.766 7.57223H98.6319V14.3487L102 11.0424V4.19531L95.0682 4.20045Z" fill="#C83A2A"/>
<path d="M57.8505 4.5283C56.5062 4.5283 55.3668 4.98655 54.4641 5.89017C53.5744 6.79309 53.1228 7.92792 53.1228 9.26198C53.1228 10.5962 53.5744 11.7309 54.465 12.6346C55.3664 13.5372 56.5057 13.9953 57.8505 13.9953C58.7061 13.9953 59.5045 13.7842 60.2234 13.3679C60.8858 12.9843 61.4157 12.4676 61.8009 11.8303L60.0476 10.8271C59.8481 11.1628 59.5702 11.4341 59.2197 11.6352C58.8142 11.8682 58.3473 11.9863 57.8318 11.9863C57.0628 11.9863 56.4164 11.7293 55.9106 11.2226C55.4034 10.6884 55.1478 10.0299 55.1478 9.26198C55.1478 8.46811 55.4042 7.80546 55.9098 7.29259C56.4162 6.77907 57.063 6.51852 57.8318 6.51852C58.3352 6.51852 58.7967 6.64034 59.2032 6.88032C59.5521 7.08668 59.8289 7.36009 60.028 7.69489L61.7678 6.67493C61.404 6.0492 60.8881 5.53865 60.2321 5.15536C59.5199 4.73931 58.7185 4.5283 57.8505 4.5283ZM57.8505 14.3731C56.402 14.3731 55.1729 13.8776 54.1974 12.9007C53.2337 11.923 52.7455 10.699 52.7455 9.26198C52.7455 7.82513 53.2337 6.601 54.1964 5.62388C55.1734 4.64597 56.4023 4.15063 57.8505 4.15063C58.7861 4.15063 59.6514 4.37886 60.4222 4.829C61.1946 5.28031 61.7889 5.89513 62.189 6.65693L62.2727 6.81661L59.8739 8.22299L59.785 8.03914C59.6159 7.68961 59.3557 7.40926 59.0114 7.20567C58.6638 7.00034 58.2669 6.89639 57.8318 6.89639C57.1582 6.89639 56.6174 7.11271 56.1784 7.55802C55.7389 8.00391 55.5251 8.56126 55.5251 9.26198C55.5251 9.93916 55.7395 10.4943 56.1808 10.959C56.6161 11.395 57.1572 11.6087 57.8318 11.6087C58.2803 11.6087 58.6842 11.5074 59.0319 11.3075C59.3754 11.1104 59.6349 10.8337 59.8035 10.4848L59.8916 10.3026L62.3137 11.6886L62.2243 11.8515C61.7997 12.6244 61.1901 13.2446 60.4123 13.6949C59.6353 14.1449 58.7732 14.3731 57.8505 14.3731Z" fill="#C83A2A"/>
<path d="M69.3747 11.0307C68.9227 11.4828 68.3636 11.7024 67.6643 11.7024C66.9649 11.7024 66.4059 11.4828 65.9558 11.0323C65.5032 10.5674 65.2832 9.98852 65.2832 9.26248C65.2832 8.53708 65.5025 7.96481 65.9558 7.51102C66.4071 7.04764 66.9662 6.82226 67.6643 6.82226C68.3623 6.82226 68.9214 7.04764 69.376 7.51449C69.8388 7.96629 70.0645 8.53811 70.0645 9.26248C70.0645 9.98749 69.8388 10.5659 69.3747 11.0307ZM67.6643 6.44458C66.8706 6.44458 66.2044 6.71452 65.6874 7.24558C65.1691 7.76488 64.9058 8.44342 64.9058 9.26248C64.9058 10.0803 65.1678 10.7646 65.6874 11.2978C66.2057 11.8171 66.8712 12.0802 67.6643 12.0802C68.458 12.0802 69.1229 11.8169 69.6412 11.2978C70.1722 10.7662 70.4412 10.0814 70.4412 9.26248C70.4412 8.44258 70.1716 7.7634 69.6431 7.24725C69.1242 6.71452 68.4586 6.44458 67.6643 6.44458Z" fill="#C83A2A"/>
<path d="M72.4666 13.7343H70.4412V12.6738H70.1301L70.1053 12.7054C69.4161 13.5735 68.4714 13.9953 67.2174 13.9953C66.0355 13.9953 65.004 13.5384 64.153 12.6392C63.3086 11.7227 62.8808 10.5865 62.8808 9.26198C62.8808 7.94991 63.3086 6.82009 64.1517 5.90423C65.0046 4.99136 66.0361 4.5283 67.2174 4.5283C68.458 4.5283 69.3957 4.9422 70.0823 5.79153H70.4412V4.78945H72.4666V13.7343ZM70.0638 4.41179V5.21064C69.3396 4.50678 68.3847 4.15063 67.2174 4.15063C65.9271 4.15063 64.8032 4.65391 63.8756 5.64722C62.965 6.63591 62.5034 7.85213 62.5034 9.26198C62.5034 10.6842 62.965 11.9068 63.8775 12.8971C64.8038 13.8765 65.9277 14.3731 67.2174 14.3731C68.3847 14.3731 69.3396 14.017 70.0638 13.3131V14.112H72.8433V4.41179H70.0638Z" fill="#C83A2A"/>
<path d="M79.878 6.88953C79.1818 6.83784 78.5488 7.00698 77.9871 7.38993C77.3637 7.81068 77.0475 8.50953 77.0475 9.46693V13.7343H75.0221V4.78952H77.0475V6.21245H77.4357C77.6352 5.69428 77.9546 5.30735 78.413 5.03313C78.8407 4.77711 79.3329 4.63428 79.878 4.60764V6.88953ZM80.066 4.22534C79.3769 4.22534 78.7553 4.38802 78.2192 4.70876C77.9011 4.89924 77.6352 5.14269 77.4242 5.43644V4.41185H74.6447V14.112H77.4242V9.46693C77.4242 8.63116 77.6773 8.05426 78.1988 7.70255C78.7407 7.33316 79.3584 7.19334 80.0412 7.28636L80.2547 7.31529V4.22534H80.066Z" fill="#C83A2A"/>
<path d="M87.3068 11.0307C86.8554 11.4828 86.2963 11.7024 85.597 11.7024C84.9085 11.7024 84.3418 11.4816 83.87 11.0323C83.4174 10.5674 83.1975 9.98852 83.1975 9.26248C83.1975 8.53708 83.4168 7.96481 83.8681 7.51282C84.3322 7.04816 84.8977 6.82226 85.597 6.82226C86.2951 6.82226 86.8542 7.04764 87.3068 7.51282C87.7588 7.96481 87.9781 8.53708 87.9781 9.26248C87.9781 9.98865 87.7581 10.5674 87.3068 11.0307ZM85.597 6.44458C84.804 6.44458 84.1327 6.714 83.601 7.24558C83.0827 7.76488 82.8201 8.44342 82.8201 9.26248C82.8201 10.0803 83.0821 10.7646 83.6048 11.301C84.1473 11.818 84.818 12.0802 85.597 12.0802C86.3901 12.0802 87.0556 11.8169 87.5758 11.2961C88.0928 10.7646 88.3555 10.0805 88.3555 9.26248C88.3555 8.44329 88.0928 7.76488 87.5758 7.24725C87.0569 6.71452 86.3913 6.44458 85.597 6.44458Z" fill="#C83A2A"/>
<path d="M90.3806 13.7343H88.3559V12.7172H88.0097C87.3339 13.577 86.3987 13.9953 85.1505 13.9953C83.9565 13.9953 82.9186 13.5383 82.0675 12.6392C81.2235 11.7227 80.7951 10.5864 80.7951 9.26192C80.7951 7.94985 81.2235 6.81984 82.0663 5.90418C82.9193 4.9913 83.9571 4.52825 85.1505 4.52825C86.4006 4.52825 87.3371 4.94777 88.0129 5.81001H88.3559V1.06028H90.3806V13.7343ZM87.9785 0.682617V5.20579C87.2638 4.50524 86.3146 4.15059 85.1505 4.15059C83.8481 4.15059 82.7178 4.65385 81.7902 5.64716C80.8799 6.63566 80.4183 7.85188 80.4183 9.26192C80.4183 10.6844 80.8799 11.9069 81.7915 12.897C82.7184 13.8764 83.8487 14.3731 85.1505 14.3731C86.3146 14.3731 87.2638 14.0186 87.9785 13.3179V14.112H90.758V0.682617H87.9785Z" fill="#C83A2A"/>
<path d="M6.35988 6.85195H4.17541V10.878C4.17541 11.1361 4.22037 11.3357 4.31078 11.4778C4.40087 11.6197 4.53938 11.723 4.72632 11.7875C4.9131 11.8521 5.14186 11.8876 5.4126 11.8941C5.68318 11.9006 5.99888 11.8908 6.35988 11.865V14.1295C5.50929 14.2323 4.78434 14.242 4.18516 14.1587C3.58582 14.0747 3.10268 13.9004 2.73541 13.6358C2.36797 13.3717 2.10053 13.0102 1.93311 12.552C1.76556 12.0942 1.68176 11.5358 1.68176 10.878V6.85195H0V4.45193H1.68176V2.49709L4.17541 1.74243V4.45193H6.35988V6.85195Z" fill="#C83A2A"/>
<path d="M14.4548 4.45166H16.9485V14.1292H14.4548V13.0339C13.8619 13.9449 12.9017 14.4003 11.5747 14.4003C10.5177 14.4003 9.64151 14.0453 8.94548 13.3353C8.26253 12.6129 7.92102 11.6324 7.92102 10.3936V4.45166H10.4149V10.0701C10.4149 10.7261 10.5886 11.2216 10.9367 11.5564C11.2847 11.8911 11.7484 12.0583 12.3284 12.0583C12.9856 12.0583 13.5043 11.8619 13.8845 11.4692C14.2645 11.0768 14.4548 10.4752 14.4548 9.66426V4.45166Z" fill="#C83A2A"/>
<path d="M18.8708 14.1292V0H21.3643V14.1292H18.8708Z" fill="#C83A2A"/>
<path d="M26.5055 11.2648C27.0081 11.7683 27.6462 12.0199 28.4194 12.0199C29.1924 12.0199 29.8305 11.7683 30.333 11.2648C30.8481 10.7489 31.1063 10.0911 31.1063 9.29075C31.1063 8.49091 30.8481 7.83905 30.333 7.33608C29.8305 6.82025 29.1924 6.56208 28.4194 6.56208C27.6462 6.56208 27.0081 6.82025 26.5055 7.33608C26.003 7.83905 25.7516 8.49091 25.7516 9.29075C25.7516 10.0911 26.003 10.7489 26.5055 11.2648ZM28.8834 4.1814C30.1847 4.1814 31.2929 4.67788 32.2082 5.67135C33.1359 6.66532 33.5997 7.87177 33.5997 9.29075C33.5997 10.736 33.1359 11.949 32.2082 12.9295C31.3059 13.9101 30.1976 14.4006 28.8834 14.4006C27.5301 14.4006 26.4862 13.9294 25.7516 12.9876V18.0003H23.2581V4.45198H25.7516V5.5939C26.4862 4.65256 27.5301 4.1814 28.8834 4.1814Z" fill="#C83A2A"/>
<path d="M38.0983 11.2648C38.601 11.7682 39.2388 12.0199 40.0122 12.0199C40.7853 12.0199 41.4231 11.7682 41.9257 11.2648C42.441 10.749 42.699 10.0911 42.699 9.29076C42.699 8.49092 42.441 7.839 41.9257 7.33609C41.4231 6.82026 40.7853 6.56202 40.0122 6.56202C39.2388 6.56202 38.601 6.82026 38.0983 7.33609C37.5958 7.839 37.3444 8.49092 37.3444 9.29076C37.3444 10.0911 37.5958 10.749 38.0983 11.2648ZM42.699 4.45198H45.1925V14.1295H42.699V12.9876C41.9516 13.9294 40.9013 14.4006 39.5481 14.4006C38.2593 14.4006 37.1512 13.91 36.2233 12.9295C35.308 11.9361 34.8509 10.7231 34.8509 9.29076C34.8509 7.87178 35.308 6.66533 36.2233 5.67136C37.1512 4.67789 38.2593 4.1814 39.5481 4.1814C40.9013 4.1814 41.9516 4.65257 42.699 5.5939V4.45198Z" fill="#C83A2A"/>
<path d="M49.0103 6.11616C49.2424 5.49703 49.6257 5.03233 50.1604 4.72251C50.6953 4.41271 51.2913 4.2583 51.9487 4.2583V7.04508C51.1882 6.94184 50.5052 7.0967 49.8996 7.5098C49.3065 7.90998 49.0103 8.57424 49.0103 9.50317V14.129H46.5168V4.45143H49.0103V6.11616Z" fill="#C83A2A"/>
</g>
<defs>
<clipPath id="clip0">
<rect width="102" height="18" fill="white"/>
</clipPath>
</defs>
</svg>
