<svg width="135" height="23" viewBox="0 0 135 23" fill="none" xmlns="http://www.w3.org/2000/svg">
<path d="M16.8163 21.1636C16.9873 21.2256 17.0763 21.4146 17.0143 21.5856C16.9523 21.7576 16.7633 21.8466 16.5923 21.7846C16.4213 21.7216 16.3323 21.5346 16.3933 21.3626C16.4543 21.1916 16.6433 21.1016 16.8143 21.1636C16.8153 21.1636 16.8163 21.1636 16.8163 21.1636Z" fill="#EE2141"/>
<path d="M15.0683 20.8956C15.2353 20.9566 15.3223 21.1396 15.2623 21.3056C15.2023 21.4736 15.0193 21.5596 14.8523 21.5006C14.6853 21.4396 14.5983 21.2566 14.6583 21.0906C14.6863 21.0106 14.7453 20.9456 14.8213 20.9086C14.8993 20.8726 14.9873 20.8676 15.0683 20.8956Z" fill="#EE2141"/>
<path d="M12.9093 21.1756C12.9683 21.0136 13.1473 20.9296 13.3093 20.9876Z" fill="#EE2141"/>
<path d="M21.3903 21.1756C21.5833 21.2446 21.6843 21.4576 21.6153 21.6516C21.5463 21.8446 21.3333 21.9456 21.1393 21.8776C20.9463 21.8086 20.8453 21.5956 20.9143 21.4016C20.9143 21.4006 20.9143 21.4006 20.9143 21.4006C20.9843 21.2066 21.1973 21.1066 21.3903 21.1756Z" fill="#EE2141"/>
<path d="M19.8473 20.8126C20.0353 20.8766 20.1353 21.0826 20.0713 21.2696C20.0063 21.4576 19.8013 21.5576 19.6133 21.4926C19.4253 21.4286 19.3253 21.2226 19.3903 21.0356C19.3913 21.0336 19.3923 21.0306 19.3933 21.0276C19.4603 20.8436 19.6623 20.7476 19.8473 20.8126Z" fill="#EE2141"/>
<path d="M18.2543 20.4556C18.4383 20.5186 18.5363 20.7196 18.4723 20.9026C18.4093 21.0866 18.2093 21.1846 18.0253 21.1206C17.8413 21.0576 17.7443 20.8576 17.8073 20.6736C17.8073 20.6716 17.8083 20.6696 17.8093 20.6676C17.8753 20.4876 18.0733 20.3936 18.2543 20.4556Z" fill="#EE2141"/>
<path d="M16.5893 20.0965C16.7653 20.1615 16.8553 20.3575 16.7893 20.5345C16.7243 20.7105 16.5283 20.8005 16.3523 20.7345C16.1763 20.6695 16.0863 20.4725 16.1523 20.2965C16.2173 20.1205 16.4133 20.0305 16.5893 20.0965Z" fill="#EE2141"/>
<path d="M14.8583 19.7906C15.0303 19.8536 15.1203 20.0426 15.0583 20.2156C14.9963 20.3886 14.8063 20.4776 14.6333 20.4156C14.4613 20.3526 14.3713 20.1636 14.4333 19.9906C14.4953 19.8176 14.6853 19.7286 14.8583 19.7906Z" fill="#EE2141"/>
<path d="M13.0733 19.6386C13.2403 19.6996 13.3273 19.8826 13.2673 20.0486C13.2073 20.2166 13.0243 20.3026 12.8573 20.2436C12.6903 20.1826 12.6033 19.9996 12.6633 19.8336C12.6913 19.7536 12.7503 19.6876 12.8263 19.6516C12.9033 19.6146 12.9923 19.6096 13.0733 19.6386Z" fill="#EE2141"/>
<path d="M11.2513 19.8196C11.4153 19.8766 11.5023 20.0556 11.4443 20.2196C11.3873 20.3836 11.2073 20.4716 11.0433 20.4126C10.8793 20.3556 10.7933 20.1766 10.8503 20.0126C10.8503 20.0106 10.8513 20.0106 10.8513 20.0086C10.9103 19.8476 11.0883 19.7636 11.2513 19.8196Z" fill="#EE2141"/>
<path d="M9.40128 20.7796C9.55728 20.8366 9.63728 21.0086 9.58028 21.1636C9.52328 21.3196 9.35128 21.3996 9.19528 21.3436C9.04028 21.2866 8.96028 21.1146 9.01628 20.9586C9.04328 20.8846 9.09928 20.8236 9.17128 20.7896C9.24328 20.7556 9.32628 20.7516 9.40128 20.7796Z" fill="#EE2141"/>
<path d="M31.9063 19.5226C32.1413 19.6086 32.2633 19.8676 32.1783 20.1026C32.0943 20.3376 31.8343 20.4596 31.5983 20.3746C31.3623 20.2896 31.2413 20.0306 31.3253 19.7956C31.4113 19.5616 31.6703 19.4386 31.9063 19.5226Z" fill="#EE2141"/>
<path d="M30.2343 20.4936C30.4633 20.5756 30.5823 20.8296 30.4993 21.0576C30.4163 21.2866 30.1643 21.4056 29.9353 21.3226C29.7063 21.2396 29.5873 20.9876 29.6703 20.7586C29.6703 20.7576 29.6703 20.7576 29.6703 20.7566C29.7543 20.5286 30.0053 20.4116 30.2343 20.4936Z" fill="#EE2141"/>
<path d="M28.6933 21.0156C28.9173 21.0966 29.0333 21.3436 28.9523 21.5686C28.8713 21.7926 28.6243 21.9086 28.4003 21.8266C28.1763 21.7466 28.0603 21.4996 28.1413 21.2756C28.2223 21.0506 28.4693 20.9356 28.6933 21.0156Z" fill="#EE2141"/>
<path d="M27.2123 21.1515C27.4323 21.2295 27.5463 21.4715 27.4683 21.6905C27.3903 21.9115 27.1493 22.0255 26.9293 21.9475C26.7103 21.8695 26.5953 21.6285 26.6733 21.4085C26.6733 21.4075 26.6733 21.4065 26.6743 21.4055C26.7543 21.1875 26.9943 21.0745 27.2123 21.1515Z" fill="#EE2141"/>
<path d="M25.7243 21.0096C25.9363 21.0876 26.0463 21.3226 25.9683 21.5346C25.8903 21.7476 25.6553 21.8566 25.4423 21.7796C25.2303 21.7026 25.1203 21.4666 25.1973 21.2546C25.2753 21.0416 25.5113 20.9326 25.7243 21.0096Z" fill="#EE2141"/>
<path d="M24.1983 20.6736C24.4053 20.7506 24.5113 20.9816 24.4333 21.1886C24.3553 21.3956 24.1253 21.5016 23.9183 21.4236C23.7113 21.3456 23.6063 21.1156 23.6833 20.9086C23.7203 20.8096 23.7943 20.7296 23.8903 20.6846C23.9873 20.6406 24.0983 20.6366 24.1983 20.6736Z" fill="#EE2141"/>
<path d="M22.6473 20.2516C22.8563 20.3216 22.9693 20.5486 22.8983 20.7586C22.8273 20.9676 22.6013 21.0796 22.3913 21.0096C22.1813 20.9396 22.0693 20.7126 22.1403 20.5036C22.1423 20.4966 22.1443 20.4906 22.1473 20.4836C22.2253 20.2856 22.4453 20.1836 22.6473 20.2516Z" fill="#EE2141"/>
<path d="M21.0913 19.8546C21.2883 19.9276 21.3893 20.1456 21.3163 20.3426C21.2443 20.5396 21.0253 20.6406 20.8283 20.5686C20.6323 20.4966 20.5313 20.2796 20.6023 20.0836C20.6733 19.8866 20.8913 19.7836 21.0883 19.8546C21.0893 19.8546 21.0903 19.8546 21.0913 19.8546Z" fill="#EE2141"/>
<path d="M19.5223 19.5136C19.7153 19.5836 19.8153 19.7966 19.7453 19.9906C19.6753 20.1836 19.4623 20.2836 19.2683 20.2136C19.0753 20.1446 18.9753 19.9306 19.0453 19.7366C19.0793 19.6446 19.1483 19.5686 19.2363 19.5276C19.3263 19.4846 19.4293 19.4796 19.5223 19.5136Z" fill="#EE2141"/>
<path d="M17.9313 19.2506C18.1193 19.3176 18.2173 19.5246 18.1493 19.7136C18.0823 19.9016 17.8743 19.9996 17.6863 19.9316C17.4983 19.8656 17.4003 19.6576 17.4683 19.4696C17.5363 19.2806 17.7433 19.1836 17.9313 19.2506Z" fill="#EE2141"/>
<path d="M16.3133 19.0106C16.4953 19.0786 16.5883 19.2816 16.5213 19.4636C16.4543 19.6456 16.2513 19.7386 16.0693 19.6716C15.8863 19.6046 15.7943 19.4016 15.8613 19.2196C15.8933 19.1326 15.9593 19.0616 16.0433 19.0226C16.1273 18.9816 16.2253 18.9786 16.3133 19.0106Z" fill="#EE2141"/>
<path d="M14.6273 18.7696C14.8043 18.8346 14.8963 19.0306 14.8313 19.2076C14.7663 19.3846 14.5703 19.4766 14.3933 19.4116C14.2153 19.3466 14.1243 19.1506 14.1893 18.9736C14.1893 18.9726 14.1903 18.9706 14.1903 18.9696C14.2563 18.7946 14.4513 18.7056 14.6273 18.7696Z" fill="#EE2141"/>
<path d="M12.8833 18.5676C13.0583 18.6306 13.1483 18.8226 13.0863 18.9976C13.0233 19.1716 12.8313 19.2626 12.6563 19.1996C12.4823 19.1366 12.3913 18.9446 12.4543 18.7696C12.4543 18.7686 12.4543 18.7676 12.4553 18.7676C12.5183 18.5946 12.7103 18.5046 12.8833 18.5676Z" fill="#EE2141"/>
<path d="M11.0813 18.5376C11.2453 18.6076 11.3213 18.7976 11.2513 18.9616C11.1813 19.1256 10.9913 19.2016 10.8273 19.1316C10.6633 19.0616 10.5873 18.8716 10.6573 18.7076C10.6783 18.6596 10.7103 18.6166 10.7513 18.5836C10.8443 18.5086 10.9713 18.4906 11.0813 18.5376Z" fill="#EE2141"/>
<path d="M9.18326 18.8436C9.34626 18.8996 9.43226 19.0756 9.37726 19.2386C9.32226 19.4016 9.14526 19.4886 8.98226 19.4326C8.81926 19.3776 8.73226 19.2006 8.78826 19.0376C8.81426 18.9596 8.87126 18.8956 8.94426 18.8596C9.01826 18.8226 9.10526 18.8166 9.18326 18.8436Z" fill="#EE2141"/>
<path d="M7.20228 20.0056C7.35828 20.0626 7.43828 20.2346 7.38228 20.3906C7.32528 20.5456 7.15328 20.6266 6.99828 20.5706C6.84328 20.5146 6.76228 20.3416 6.81828 20.1856C6.87528 20.0296 7.04628 19.9486 7.20228 20.0056Z" fill="#EE2141"/>
<path d="M29.7333 18.6236C29.9693 18.7086 30.0923 18.9696 30.0073 19.2056C29.9223 19.4426 29.6613 19.5646 29.4243 19.4796C29.1883 19.3946 29.0653 19.1336 29.1503 18.8976C29.1503 18.8976 29.1503 18.8976 29.1503 18.8966C29.2363 18.6606 29.4973 18.5386 29.7333 18.6236Z" fill="#EE2141"/>
<path d="M28.1803 19.3746C28.4113 19.4576 28.5313 19.7136 28.4473 19.9446C28.3643 20.1746 28.1083 20.2946 27.8773 20.2116C27.6463 20.1276 27.5263 19.8726 27.6103 19.6426C27.6933 19.4106 27.9493 19.2906 28.1803 19.3746Z" fill="#EE2141"/>
<path d="M26.7443 19.6926C26.9683 19.7746 27.0833 20.0206 27.0023 20.2456C26.9213 20.4696 26.6743 20.5856 26.4503 20.5036C26.2263 20.4236 26.1113 20.1766 26.1913 19.9526C26.2733 19.7286 26.5203 19.6126 26.7443 19.6926Z" fill="#EE2141"/>
<path d="M25.3093 19.6926C25.5273 19.7726 25.6413 20.0136 25.5613 20.2326C25.4823 20.4506 25.2413 20.5636 25.0223 20.4846C24.8033 20.4056 24.6903 20.1646 24.7703 19.9456C24.8083 19.8416 24.8863 19.7556 24.9863 19.7086C25.0873 19.6606 25.2043 19.6556 25.3093 19.6926Z" fill="#EE2141"/>
<path d="M23.8443 19.4536C24.0583 19.5306 24.1693 19.7666 24.0933 19.9796C24.0163 20.1946 23.7803 20.3056 23.5663 20.2286C23.3523 20.1516 23.2413 19.9156 23.3183 19.7016C23.3183 19.7006 23.3183 19.6996 23.3193 19.6986C23.3963 19.4866 23.6313 19.3766 23.8443 19.4536Z" fill="#EE2141"/>
<path d="M22.3273 19.1016C22.5343 19.1786 22.6393 19.4086 22.5623 19.6156C22.4853 19.8226 22.2553 19.9286 22.0483 19.8506C21.8413 19.7726 21.7353 19.5426 21.8133 19.3356C21.8503 19.2366 21.9243 19.1566 22.0203 19.1126C22.1163 19.0686 22.2273 19.0636 22.3273 19.1016Z" fill="#EE2141"/>
<path d="M20.7773 18.7146C20.9863 18.7846 21.1003 19.0116 21.0293 19.2206C20.9583 19.4296 20.7323 19.5436 20.5233 19.4726C20.3143 19.4016 20.2013 19.1756 20.2713 18.9666C20.2733 18.9606 20.2753 18.9546 20.2773 18.9496C20.3543 18.7496 20.5743 18.6466 20.7773 18.7146Z" fill="#EE2141"/>
<path d="M19.1943 18.3386C19.3933 18.4106 19.4953 18.6296 19.4243 18.8276C19.3523 19.0256 19.1333 19.1286 18.9353 19.0566C18.7373 18.9856 18.6343 18.7666 18.7063 18.5676C18.7763 18.3706 18.9953 18.2676 19.1943 18.3386Z" fill="#EE2141"/>
<path d="M17.5933 18.0366C17.7883 18.1056 17.8903 18.3196 17.8213 18.5146C17.7523 18.7086 17.5383 18.8106 17.3433 18.7426C17.1483 18.6736 17.0473 18.4596 17.1153 18.2646C17.1863 18.0696 17.3993 17.9676 17.5933 18.0366Z" fill="#EE2141"/>
<path d="M15.9793 17.8116C16.1683 17.8796 16.2663 18.0886 16.1973 18.2776C16.1293 18.4666 15.9203 18.5646 15.7313 18.4956C15.5423 18.4276 15.4443 18.2186 15.5123 18.0296C15.5453 17.9396 15.6123 17.8656 15.6993 17.8246C15.7883 17.7836 15.8883 17.7786 15.9793 17.8116Z" fill="#EE2141"/>
<path d="M14.3343 17.6426C14.5183 17.7086 14.6133 17.9116 14.5463 18.0956C14.4793 18.2796 14.2773 18.3746 14.0933 18.3076C13.9093 18.2416 13.8143 18.0386 13.8813 17.8546C13.9483 17.6706 14.1503 17.5766 14.3343 17.6426Z" fill="#EE2141"/>
<path d="M12.6423 17.4946C12.8203 17.5596 12.9123 17.7576 12.8463 17.9356C12.7803 18.1136 12.5823 18.2056 12.4043 18.1396C12.2273 18.0746 12.1363 17.8796 12.1983 17.7016C12.2613 17.5226 12.4583 17.4286 12.6373 17.4926C12.6393 17.4936 12.6413 17.4946 12.6423 17.4946Z" fill="#EE2141"/>
<path d="M10.8833 17.4156C11.0573 17.4786 11.1473 17.6726 11.0833 17.8466C11.0193 18.0206 10.8263 18.1106 10.6523 18.0466C10.4783 17.9836 10.3883 17.7896 10.4523 17.6156C10.5163 17.4416 10.7093 17.3516 10.8833 17.4156Z" fill="#EE2141"/>
<path d="M9.05829 17.4966C9.22629 17.5576 9.31429 17.7446 9.25329 17.9126C9.19229 18.0816 9.00529 18.1686 8.83629 18.1076C8.66829 18.0456 8.58029 17.8596 8.64129 17.6906C8.67029 17.6096 8.73029 17.5446 8.80829 17.5076C8.88629 17.4716 8.97629 17.4676 9.05829 17.4966Z" fill="#EE2141"/>
<path d="M7.09927 17.9635C7.26427 18.0195 7.35227 18.1975 7.29627 18.3625C7.24027 18.5275 7.06227 18.6155 6.89727 18.5605C6.73327 18.5045 6.64527 18.3275 6.69827 18.1635C6.75327 17.9975 6.93027 17.9085 7.09627 17.9625C7.09727 17.9625 7.09827 17.9635 7.09927 17.9635Z" fill="#EE2141"/>
<path d="M4.96827 19.3946C5.12427 19.4516 5.20427 19.6236 5.14727 19.7786C5.09027 19.9346 4.91827 20.0146 4.76327 19.9586C4.60727 19.9016 4.52727 19.7296 4.58427 19.5736C4.61127 19.4986 4.66727 19.4376 4.73927 19.4046C4.81027 19.3706 4.89327 19.3676 4.96827 19.3946Z" fill="#EE2141"/>
<path d="M29.2513 16.5786C29.4943 16.6636 29.6223 16.9306 29.5363 17.1736C29.4513 17.4176 29.1843 17.5446 28.9413 17.4596C28.6973 17.3736 28.5703 17.1066 28.6553 16.8636C28.6553 16.8626 28.6563 16.8606 28.6563 16.8596C28.7443 16.6186 29.0093 16.4936 29.2513 16.5786Z" fill="#EE2141"/>
<path d="M27.5173 17.7736C27.7543 17.8636 27.8733 18.1286 27.7843 18.3656C27.6943 18.6026 27.4293 18.7216 27.1923 18.6326C26.9553 18.5426 26.8363 18.2776 26.9253 18.0406C26.9683 17.9276 27.0533 17.8366 27.1633 17.7866C27.2753 17.7336 27.4023 17.7296 27.5173 17.7736Z" fill="#EE2141"/>
<path d="M26.0853 18.3275C26.3183 18.4055 26.4443 18.6575 26.3663 18.8905C26.2883 19.1235 26.0363 19.2495 25.8033 19.1715C25.5703 19.0935 25.4443 18.8415 25.5223 18.6085C25.5233 18.6035 25.5253 18.5985 25.5273 18.5935C25.6103 18.3695 25.8583 18.2515 26.0853 18.3275Z" fill="#EE2141"/>
<path d="M24.7353 18.4726C24.9603 18.5536 25.0763 18.8026 24.9953 19.0266C24.9143 19.2516 24.6653 19.3676 24.4413 19.2866C24.2163 19.2056 24.1003 18.9566 24.1813 18.7326C24.2203 18.6256 24.3003 18.5376 24.4033 18.4886C24.5063 18.4386 24.6263 18.4336 24.7353 18.4726Z" fill="#EE2141"/>
<path d="M23.3643 18.3646C23.5843 18.4436 23.6983 18.6856 23.6203 18.9056C23.5413 19.1256 23.2993 19.2396 23.0793 19.1606C22.8593 19.0816 22.7453 18.8396 22.8243 18.6196C22.8243 18.6186 22.8243 18.6176 22.8243 18.6176C22.9043 18.3986 23.1453 18.2866 23.3643 18.3646Z" fill="#EE2141"/>
<path d="M21.9163 18.1026C22.1303 18.1806 22.2403 18.4166 22.1633 18.6306C22.0863 18.8446 21.8493 18.9546 21.6353 18.8776C21.4213 18.8006 21.3113 18.5646 21.3883 18.3506C21.4653 18.1356 21.7023 18.0246 21.9163 18.1026Z" fill="#EE2141"/>
<path d="M20.4133 17.7246C20.6203 17.8016 20.7253 18.0316 20.6483 18.2386C20.5713 18.4456 20.3413 18.5516 20.1343 18.4736C19.9273 18.3956 19.8213 18.1656 19.8993 17.9586C19.9363 17.8596 20.0103 17.7796 20.1063 17.7356C20.2023 17.6916 20.3133 17.6876 20.4133 17.7246Z" fill="#EE2141"/>
<path d="M18.8513 17.3305C19.0533 17.4195 19.1443 17.6555 19.0563 17.8575C18.9683 18.0595 18.7313 18.1515 18.5293 18.0625C18.3273 17.9735 18.2353 17.7375 18.3243 17.5355C18.3503 17.4755 18.3913 17.4235 18.4423 17.3825C18.5583 17.2915 18.7153 17.2705 18.8513 17.3305Z" fill="#EE2141"/>
<path d="M17.2543 16.9606C17.4473 17.0396 17.5473 17.2526 17.4843 17.4516C17.4123 17.6506 17.1923 17.7546 16.9933 17.6826C16.7933 17.6106 16.6903 17.3906 16.7623 17.1916C16.8333 16.9916 17.0533 16.8886 17.2543 16.9606Z" fill="#EE2141"/>
<path d="M15.6323 16.6366C15.8253 16.7076 15.9243 16.9216 15.8533 17.1146C15.7823 17.3076 15.5683 17.4066 15.3753 17.3346C15.1833 17.2636 15.0833 17.0496 15.1553 16.8566C15.1893 16.7646 15.2583 16.6896 15.3463 16.6486C15.4363 16.6066 15.5393 16.6026 15.6323 16.6366Z" fill="#EE2141"/>
<path d="M14.0003 16.3946C14.1913 16.4606 14.2923 16.6696 14.2263 16.8606C14.1603 17.0516 13.9513 17.1526 13.7603 17.0866C13.5693 17.0206 13.4683 16.8116 13.5343 16.6206C13.5663 16.5296 13.6323 16.4546 13.7193 16.4126C13.8073 16.3686 13.9083 16.3626 14.0003 16.3946Z" fill="#EE2141"/>
<path d="M12.3413 16.2426C12.5263 16.3056 12.6253 16.5076 12.5613 16.6926C12.4973 16.8776 12.2963 16.9756 12.1113 16.9126C11.9263 16.8496 11.8273 16.6476 11.8913 16.4626C11.8913 16.4616 11.8923 16.4596 11.8933 16.4576C11.9593 16.2756 12.1583 16.1796 12.3413 16.2426Z" fill="#EE2141"/>
<path d="M10.6423 16.1765C10.8223 16.2415 10.9143 16.4405 10.8503 16.6195C10.7863 16.7985 10.5873 16.8915 10.4073 16.8275C10.2273 16.7635 10.1353 16.5645 10.1993 16.3845C10.2643 16.2045 10.4623 16.1115 10.6423 16.1765Z" fill="#EE2141"/>
<path d="M8.88827 16.2286C9.06327 16.2916 9.15427 16.4836 9.09127 16.6586C9.02827 16.8336 8.83627 16.9246 8.66127 16.8616C8.48627 16.7986 8.39527 16.6066 8.45827 16.4316C8.45827 16.4306 8.45827 16.4296 8.45927 16.4286C8.52327 16.2556 8.71427 16.1666 8.88827 16.2286Z" fill="#EE2141"/>
<path d="M7.03326 16.4856C7.20326 16.5476 7.29126 16.7346 7.22926 16.9046C7.16826 17.0746 6.98026 17.1626 6.81126 17.1006C6.64326 17.0396 6.55527 16.8546 6.61327 16.6856C6.67327 16.5156 6.85926 16.4246 7.03026 16.4846C7.03026 16.4846 7.03226 16.4846 7.03326 16.4856Z" fill="#EE2141"/>
<path d="M4.99526 17.1266C5.16026 17.1826 5.24826 17.3606 5.19226 17.5256C5.13626 17.6906 4.95826 17.7786 4.79326 17.7226C4.62926 17.6676 4.54126 17.4906 4.59426 17.3266C4.64926 17.1606 4.82626 17.0716 4.99226 17.1256C4.99326 17.1256 4.99426 17.1266 4.99526 17.1266Z" fill="#EE2141"/>
<path d="M2.69629 18.8996C2.85029 18.9606 2.92529 19.1346 2.86529 19.2886C2.80429 19.4426 2.63029 19.5176 2.47529 19.4576C2.32129 19.3966 2.24629 19.2226 2.30729 19.0676C2.33529 18.9966 2.39029 18.9386 2.45929 18.9066C2.53429 18.8716 2.61929 18.8696 2.69629 18.8996Z" fill="#EE2141"/>
<path d="M28.8433 14.2826C29.0923 14.3726 29.2213 14.6466 29.1313 14.8956C29.0413 15.1446 28.7663 15.2726 28.5183 15.1836C28.2693 15.0936 28.1403 14.8186 28.2303 14.5706C28.2303 14.5706 28.2303 14.5706 28.2303 14.5696C28.3203 14.3216 28.5943 14.1926 28.8433 14.2826Z" fill="#EE2141"/>
<path d="M26.7623 16.1236C27.0063 16.2086 27.1333 16.4756 27.0483 16.7196C26.9633 16.9626 26.6953 17.0906 26.4523 17.0046C26.2093 16.9196 26.0813 16.6526 26.1673 16.4086C26.1673 16.4076 26.1683 16.4056 26.1683 16.4046C26.2553 16.1636 26.5213 16.0386 26.7623 16.1236Z" fill="#EE2141"/>
<path d="M25.2433 16.9786C25.4813 17.0636 25.6043 17.3256 25.5193 17.5626C25.4343 17.7996 25.1723 17.9236 24.9353 17.8386C24.6973 17.7536 24.5743 17.4916 24.6593 17.2546C24.7453 17.0176 25.0063 16.8936 25.2433 16.9786Z" fill="#EE2141"/>
<path d="M23.9433 17.3156C24.1753 17.3986 24.2963 17.6556 24.2123 17.8876C24.1293 18.1196 23.8723 18.2406 23.6403 18.1566C23.4083 18.0726 23.2873 17.8166 23.3713 17.5846C23.4553 17.3526 23.7113 17.2316 23.9433 17.3156Z" fill="#EE2141"/>
<path d="M22.6773 17.3546C22.9043 17.4376 23.0203 17.6886 22.9383 17.9156C22.8553 18.1426 22.6043 18.2586 22.3773 18.1756C22.1503 18.0926 22.0343 17.8416 22.1163 17.6146C22.2003 17.3886 22.4513 17.2716 22.6773 17.3546Z" fill="#EE2141"/>
<path d="M21.3523 17.1736C21.5723 17.2546 21.6853 17.4986 21.6053 17.7186C21.5243 17.9386 21.2803 18.0516 21.0603 17.9716C20.8403 17.8906 20.7273 17.6486 20.8073 17.4286C20.8863 17.2076 21.1303 17.0936 21.3503 17.1726C21.3513 17.1726 21.3513 17.1736 21.3523 17.1736Z" fill="#EE2141"/>
<path d="M19.9423 16.8496C20.1573 16.9276 20.2693 17.1646 20.1913 17.3796C20.1133 17.5946 19.8763 17.7066 19.6613 17.6286C19.4463 17.5506 19.3353 17.3136 19.4123 17.0986C19.4893 16.8836 19.7273 16.7716 19.9423 16.8496Z" fill="#EE2141"/>
<path d="M18.4423 16.4716C18.6493 16.5496 18.7533 16.7806 18.6743 16.9876C18.5963 17.1946 18.3653 17.2986 18.1583 17.2196C17.9513 17.1416 17.8473 16.9106 17.9263 16.7036C17.9633 16.6056 18.0373 16.5266 18.1323 16.4826C18.2303 16.4376 18.3413 16.4336 18.4423 16.4716Z" fill="#EE2141"/>
<path d="M16.8863 16.0266C17.0943 16.0996 17.2043 16.3276 17.1313 16.5366C17.0583 16.7446 16.8303 16.8546 16.6213 16.7816C16.4123 16.7086 16.3033 16.4806 16.3763 16.2716C16.3773 16.2696 16.3783 16.2666 16.3793 16.2636C16.4553 16.0596 16.6813 15.9546 16.8863 16.0266Z" fill="#EE2141"/>
<path d="M15.2853 15.6186C15.4853 15.6926 15.5863 15.9146 15.5123 16.1146C15.4373 16.3146 15.2153 16.4166 15.0153 16.3426C14.8153 16.2676 14.7143 16.0456 14.7883 15.8456C14.8233 15.7516 14.8933 15.6746 14.9843 15.6316C15.0793 15.5866 15.1883 15.5826 15.2853 15.6186Z" fill="#EE2141"/>
<path d="M13.6643 15.2385C13.8583 15.3085 13.9583 15.5235 13.8883 15.7175C13.8183 15.9115 13.6033 16.0125 13.4093 15.9425C13.2153 15.8725 13.1153 15.6575 13.1853 15.4635C13.2193 15.3705 13.2883 15.2945 13.3783 15.2525C13.4683 15.2105 13.5713 15.2045 13.6643 15.2385Z" fill="#EE2141"/>
<path d="M12.0183 14.9165C12.2063 14.9855 12.3033 15.1945 12.2343 15.3835C12.1653 15.5715 11.9563 15.6695 11.7673 15.5995C11.5793 15.5305 11.4823 15.3215 11.5513 15.1325C11.5843 15.0425 11.6513 14.9695 11.7383 14.9285C11.8263 14.8875 11.9273 14.8835 12.0183 14.9165Z" fill="#EE2141"/>
<path d="M10.3543 14.7466C10.5363 14.8166 10.6273 15.0216 10.5573 15.2046C10.4873 15.3876 10.2823 15.4776 10.0993 15.4076C9.91628 15.3376 9.82628 15.1326 9.89628 14.9496C9.92928 14.8646 9.99428 14.7946 10.0783 14.7556C10.1653 14.7156 10.2653 14.7126 10.3543 14.7466Z" fill="#EE2141"/>
<path d="M8.65027 14.7606C8.82927 14.8276 8.91927 15.0276 8.85227 15.2066C8.78527 15.3856 8.58527 15.4766 8.40727 15.4086C8.22827 15.3416 8.13727 15.1416 8.20527 14.9626C8.20527 14.9626 8.20527 14.9616 8.20627 14.9606C8.27327 14.7826 8.47227 14.6936 8.65027 14.7606Z" fill="#EE2141"/>
<path d="M6.88726 14.9956C7.06126 15.0586 7.15126 15.2526 7.08726 15.4266C7.02326 15.6006 6.83026 15.6906 6.65626 15.6266C6.48226 15.5636 6.39226 15.3696 6.45626 15.1956C6.52026 15.0206 6.71326 14.9316 6.88726 14.9956Z" fill="#EE2141"/>
<path d="M4.99828 15.4706C5.16828 15.5326 5.25628 15.7196 5.19428 15.8896C5.13228 16.0596 4.94528 16.1476 4.77528 16.0856C4.60728 16.0246 4.51928 15.8396 4.57828 15.6706C4.63728 15.4996 4.82428 15.4096 4.99428 15.4696C4.99628 15.4696 4.99728 15.4706 4.99828 15.4706Z" fill="#EE2141"/>
<path d="M2.86728 16.3576C3.02728 16.4286 3.09928 16.6166 3.02828 16.7756C2.95728 16.9356 2.77028 17.0076 2.61028 16.9366C2.45028 16.8656 2.37828 16.6786 2.44928 16.5186C2.47028 16.4726 2.50128 16.4316 2.54128 16.3996C2.63228 16.3256 2.75928 16.3096 2.86728 16.3576Z" fill="#EE2141"/>
<path d="M0.40528 18.4746C0.56328 18.5296 0.64528 18.7026 0.59028 18.8596C0.53528 19.0176 0.36228 19.0996 0.20528 19.0446C0.0482802 18.9926 -0.0367198 18.8226 0.0152802 18.6656C0.0172802 18.6586 0.0202802 18.6516 0.0232802 18.6446C0.0822802 18.4936 0.25028 18.4156 0.40328 18.4706L0.40528 18.4746Z" fill="#EE2141"/>
<path d="M54 11H55.6329L55.9665 12.5327H58V14.4256H56.2049V18.7812C56.2049 19.6647 56.5576 20.1056 57.2629 20.1064H57.9972V22H56.2049C54.7378 22 54.0049 21.1501 54.0049 19.448L54 11Z" fill="#EE2141"/>
<path d="M59 22V13H60.9311L61.25 14.6501C61.9613 13.948 62.9515 13.5346 64 13.5027V15.3363C63.0225 15.3574 62.1064 15.7751 61.5036 16.4758V21.9993L59 22Z" fill="#EE2141"/>
<path d="M64 19.2068C64 17.3595 65.4178 16.4362 68.2533 16.4362C69.0159 16.429 69.7777 16.487 70.5292 16.6083V16.0152C70.5292 15.2088 69.6806 14.8052 67.9825 14.8059C66.9026 14.8088 65.8283 14.9533 64.7926 15.2371V13.4312C65.8283 13.1474 66.9026 13.0015 67.9825 13C71.3273 13 73 13.9886 73 15.9673V22H71.7504L70.6863 21.3648C69.8511 21.7844 68.9148 22.0029 67.9636 22C65.3215 22.0072 64 21.0767 64 19.2068ZM68.2533 18.1529C67.0653 18.1529 66.4708 18.4962 66.4708 19.1814C66.4708 19.8667 66.969 20.2107 67.9644 20.2114C68.8793 20.2368 69.7792 19.99 70.5292 19.5074V18.3235C69.7784 18.1986 69.0159 18.1413 68.2533 18.1529Z" fill="#EE2141"/>
<path d="M74 22V12.3318C74 10.111 75.3361 9.00054 78.0091 9.00054C78.6876 8.99092 79.3625 9.10936 80 9.35144V11.1859C79.3639 10.9394 78.6883 10.8202 78.0091 10.8357C76.8426 10.8357 76.2597 11.4835 76.2597 12.7782H78.9348V14.6149H76.2511V21.9719L74 22Z" fill="#EE2141"/>
<path d="M89 13H86V22H89V13Z" fill="#EE2141"/>
<path d="M97 13H99.4142L100.823 19.0928L102.93 13H104.981L107.253 19.0928L108.505 13H111L108.424 22H106.179L103.946 15.7853L101.689 22H99.4035L97 13Z" fill="#EE2141"/>
<path d="M118 13H120.334L122.458 19.2909L124.666 13H127L123.441 22H121.343L118 13Z" fill="#EE2141"/>
<path d="M134.881 18.3745H129.193C129.193 19.5854 130.148 20.1909 132.059 20.1909C132.944 20.1909 133.826 20.1046 134.695 19.9335V21.739C133.717 21.9311 132.723 22.0174 131.73 21.9971C128.576 21.9971 127 20.4635 127 17.3949C127 14.4654 128.444 13 131.332 13C134.218 13.0007 135.402 14.7925 134.881 18.3745ZM129.193 16.7111H132.818C132.896 15.4211 132.315 14.7758 131.078 14.7758C129.918 14.7758 129.289 15.4226 129.191 16.7169L129.193 16.7111Z" fill="#EE2141"/>
<path d="M91.4358 17.3202C91.4358 15.6353 92.4623 14.7932 94.516 14.7932C95.2778 14.791 96.0358 14.8628 96.7813 15.0071L96.2716 13.13C95.6303 13.0408 94.9821 12.9972 94.3338 13.0001C90.7782 13.0001 89 14.4428 89 17.3275C89 20.4428 90.7774 21.9994 94.3338 21.9994C95.2303 22.0081 96.1245 21.9218 97 21.7419V19.9344C96.1868 20.1084 95.3541 20.1948 94.5183 20.1926C92.463 20.1919 91.4358 19.2351 91.4358 17.3202Z" fill="#EE2141"/>
<path d="M113.539 13C112.785 13.0007 112.034 13.0907 111.3 13.2684L110.795 15.2023C111.687 14.9375 112.61 14.8019 113.539 14.8004C115.048 14.8004 115.804 15.203 115.804 16.0089V16.5994C115.136 16.4775 114.459 16.421 113.781 16.4282C111.259 16.4282 109.999 17.3502 110 19.1963C110 21.065 111.175 22 113.524 22C114.369 22.0022 115.202 21.7831 115.944 21.3653L116.89 22H118V15.9705C118 13.9916 116.513 13.0007 113.539 13ZM115.804 19.4966C115.137 19.9783 114.337 20.2257 113.525 20.2003C112.639 20.2003 112.196 19.8572 112.196 19.1709C112.196 18.4847 112.725 18.1416 113.781 18.1431C114.459 18.1315 115.136 18.1888 115.804 18.3128V19.4966Z" fill="#EE2141"/>
<path d="M89 10.5013C88.9983 11.3297 88.3272 12 87.4979 12C86.6703 11.9983 85.9991 11.3272 86 10.4979C86.0009 9.66941 86.6728 8.99915 87.5013 9C87.8985 9 88.2796 9.15906 88.5602 9.43975C88.8426 9.72129 89 10.1024 89 10.5013Z" fill="#EE2141"/>
<path d="M84.2438 10.833C84.7684 10.8285 85.2908 10.8877 85.7994 11.0091C85.5638 10.4207 85.6393 9.75891 86 9.23335C85.4319 9.0742 84.8432 8.99574 84.2522 9.00018C81.4176 9.00018 80 10.1105 80 12.3312V22L82.3876 21.966V14.6126H85.2275V12.7753H82.3876C82.3876 11.4799 83.0061 10.833 84.2438 10.833Z" fill="#EE2141"/>
<path d="M43.4143 22.0976H43.4303L43.3793 22.1146H43.3933L43.4143 22.0976Z" fill="#EE2141"/>
<path d="M43.1763 22.1126C43.1233 22.0756 43.0763 22.0326 43.0283 21.9906C42.6283 21.6716 42.1813 21.7536 42.1393 21.8976C42.0663 22.1536 43.0393 22.2256 43.1943 22.1286L43.1763 22.1126Z" fill="#EE2141"/>
<path d="M41.6323 22.0126C41.4063 21.8966 41.1453 21.8676 40.9003 21.9336C40.8173 22.0006 40.9383 22.0876 41.2323 22.1526C41.4713 22.2036 41.9073 22.2246 41.8453 22.1306C41.7823 22.0776 41.7103 22.0376 41.6323 22.0126Z" fill="#EE2141"/>
<path d="M39.7373 22.0196C39.5043 21.9036 39.2383 21.8726 38.9853 21.9296C38.9223 21.9926 39.2033 22.1486 39.6163 22.2026C39.6163 22.2026 40.0813 22.2616 39.9943 22.1496C39.9193 22.0886 39.8313 22.0446 39.7373 22.0196Z" fill="#EE2141"/>
<path d="M37.5203 21.9706C37.3683 21.8946 37.1993 21.8596 37.0293 21.8706C36.9543 21.9296 37.4563 22.1156 37.6863 22.1156C37.7713 22.1156 37.7413 22.0836 37.7283 22.0716C37.6653 22.0266 37.5943 21.9926 37.5203 21.9706Z" fill="#EE2141"/>
<path d="M42.8853 21.4506C42.9723 21.3006 42.9953 21.1226 42.9503 20.9556C42.9013 20.7676 42.7813 20.6066 42.6163 20.5066C42.1033 20.1936 41.4033 20.5066 41.5163 20.9996C41.6133 21.4356 42.5453 21.9216 42.8853 21.4506Z" fill="#EE2141"/>
<path d="M40.5023 20.6836C40.1723 20.5086 39.8023 20.6096 39.8773 20.8576C39.9643 21.1446 40.6693 21.4026 40.7973 21.1146C40.8193 21.0176 40.7873 20.9166 40.7143 20.8496C40.6543 20.7806 40.5823 20.7246 40.5023 20.6836Z" fill="#EE2141"/>
<path d="M38.2483 20.6926C38.1443 20.6046 38.0223 20.5406 37.8903 20.5066C37.6393 20.4476 37.4903 20.5536 37.5953 20.7066C37.7493 20.9416 38.3133 21.1206 38.3673 20.9066C38.3693 20.8776 38.3713 20.8046 38.2483 20.6926Z" fill="#EE2141"/>
<path d="M35.6403 20.4476C35.5333 20.3536 35.4013 20.2956 35.2603 20.2796C35.1313 20.2796 35.1193 20.3666 35.2363 20.4796C35.4123 20.6516 35.7603 20.7626 35.7603 20.6126C35.7593 20.5946 35.7473 20.5366 35.6403 20.4476Z" fill="#EE2141"/>
<path d="M33.3693 19.9876C33.2173 19.8526 33.0373 19.7536 32.9853 19.7766C32.9003 19.8156 33.1653 20.0886 33.3853 20.1926C33.4363 20.2186 33.5513 20.2616 33.5143 20.1656C33.4773 20.0986 33.4273 20.0386 33.3693 19.9876Z" fill="#EE2141"/>
<path d="M43.0593 19.0915C43.0373 18.9035 42.9353 18.7325 42.7803 18.6225C42.4613 18.3945 42.0173 18.4695 41.7903 18.7885C41.5623 19.1075 41.6373 19.5505 41.9563 19.7795C42.2523 19.9905 42.6593 19.9435 42.9003 19.6725C43.0263 19.5075 43.0843 19.2985 43.0593 19.0915Z" fill="#EE2141"/>
<path d="M40.6253 19.3736C40.7363 19.1866 40.7503 18.9566 40.6613 18.7586C40.5863 18.5776 40.4593 18.4246 40.2953 18.3176C39.6893 17.9176 38.9203 18.2696 39.0463 18.8836C39.1723 19.4976 40.1823 19.9876 40.6253 19.3736Z" fill="#EE2141"/>
<path d="M37.4833 18.8346C37.5253 18.7326 37.5103 18.6166 37.4453 18.5276C37.3833 18.4266 37.2953 18.3456 37.1883 18.2936C36.8733 18.1376 36.5823 18.2936 36.6703 18.5786C36.7713 18.9056 37.3173 19.1336 37.4833 18.8346Z" fill="#EE2141"/>
<path d="M34.2003 17.8886C33.9723 17.8196 33.8463 17.9676 33.9513 18.1836C34.0843 18.4566 34.4873 18.6326 34.5803 18.3956C34.5993 18.3046 34.5763 18.2086 34.5173 18.1366C34.4413 18.0216 34.3303 17.9346 34.2003 17.8886Z" fill="#EE2141"/>
<path d="M31.6193 17.2726C31.4713 17.2486 31.4803 17.4506 31.6373 17.6566C31.7683 17.8306 31.9893 17.9636 32.0153 17.7856C32.0123 17.6996 31.9843 17.6166 31.9363 17.5466C31.8673 17.4196 31.7543 17.3226 31.6193 17.2726Z" fill="#EE2141"/>
<path d="M30.1393 16.6246C30.0143 16.3776 29.8763 16.2106 29.8263 16.2106C29.7113 16.2106 30.0263 16.8696 30.2023 17.0026C30.2573 17.0426 30.2773 17.0206 30.2613 16.9336C30.2333 16.8256 30.1923 16.7216 30.1393 16.6246Z" fill="#EE2141"/>
<path d="M43.5343 16.4996C43.5183 16.3096 43.4243 16.1346 43.2733 16.0166C42.9243 15.7936 42.4603 15.8966 42.2373 16.2456C42.1443 16.3916 42.1043 16.5646 42.1253 16.7366C42.1473 17.1116 42.4693 17.3966 42.8433 17.3746C43.0363 17.3626 43.2163 17.2696 43.3363 17.1176C43.4803 16.9446 43.5513 16.7236 43.5343 16.4996Z" fill="#EE2141"/>
<path d="M39.3033 16.2386C39.3413 16.5926 39.6583 16.8496 40.0123 16.8126C40.1733 16.7956 40.3223 16.7186 40.4293 16.5976C40.5323 16.4516 40.5633 16.2686 40.5163 16.0976C40.4773 15.9576 40.3943 15.8346 40.2793 15.7476C40.0293 15.5356 39.6543 15.5666 39.4423 15.8166C39.3403 15.9366 39.2913 16.0906 39.3033 16.2476V16.2386Z" fill="#EE2141"/>
<path d="M37.2253 16.0936C37.3003 15.9676 37.3133 15.8136 37.2613 15.6756C37.2173 15.5606 37.1403 15.4606 37.0413 15.3866C36.6713 15.1156 36.2183 15.3566 36.2953 15.7866C36.3663 16.1806 36.9323 16.5036 37.2253 16.0936Z" fill="#EE2141"/>
<path d="M34.1993 15.6116C34.2633 15.4626 34.2633 15.2936 34.1993 15.1446C34.1453 14.9986 34.0493 14.8706 33.9243 14.7766C33.7573 14.6196 33.4953 14.6266 33.3383 14.7936C33.2293 14.9096 33.1953 15.0776 33.2523 15.2266C33.3463 15.6746 33.9483 16.0306 34.1993 15.6116Z" fill="#EE2141"/>
<path d="M31.1033 13.9786C30.8203 13.8596 30.6643 14.2086 30.8143 14.6236C30.9643 15.0386 31.3073 15.2176 31.4593 14.8926C31.5073 14.7476 31.5073 14.5916 31.4593 14.4476C31.4113 14.2486 31.2813 14.0786 31.1033 13.9786Z" fill="#EE2141"/>
<path d="M29.2333 12.9416C29.0333 12.9016 29.0813 13.5806 29.2863 13.9306C29.3143 13.9766 29.4523 14.1896 29.5183 13.9186C29.5403 13.7726 29.5343 13.6236 29.5003 13.4796C29.4423 13.1916 29.3263 12.9586 29.2333 12.9416Z" fill="#EE2141"/>
<path d="M28.4813 11.7065C28.4713 12.0385 28.4993 12.3705 28.5643 12.6955C28.5653 12.6635 28.5693 12.6325 28.5743 12.6005C28.5793 12.4725 28.5743 12.3455 28.5563 12.2185C28.5443 12.0465 28.5193 11.8745 28.4813 11.7065Z" fill="#EE2141"/>
<path d="M46.8613 15.0416C47.1283 14.7256 47.2843 14.3326 47.3063 13.9196C47.3353 13.5496 47.1963 13.1856 46.9263 12.9306C46.1683 12.2956 45.0103 13.2036 45.0783 14.3816C45.1313 15.2906 45.9893 15.9856 46.8613 15.0416Z" fill="#EE2141"/>
<path d="M44.1893 13.3775C44.1683 13.1965 44.0853 13.0295 43.9553 12.9025C43.6233 12.6315 43.1353 12.6805 42.8643 13.0115C42.7253 13.1805 42.6653 13.4015 42.6973 13.6185C42.7013 14.0175 43.0293 14.3385 43.4293 14.3345C43.6523 14.3325 43.8623 14.2265 43.9973 14.0485C44.1493 13.8595 44.2173 13.6175 44.1893 13.3775Z" fill="#EE2141"/>
<path d="M40.9003 13.5236C41.0463 13.3236 41.1003 13.0706 41.0463 12.8286C41.0113 12.6676 40.9313 12.5206 40.8143 12.4056C40.5113 12.0906 40.0103 12.0796 39.6943 12.3836C39.5243 12.5476 39.4353 12.7786 39.4533 13.0146C39.4583 13.4656 39.8283 13.8276 40.2793 13.8226C40.5203 13.8186 40.7473 13.7096 40.9003 13.5236Z" fill="#EE2141"/>
<path d="M37.2633 11.9046C37.0033 11.7146 36.6383 11.7716 36.4473 12.0316C36.3443 12.1726 36.3103 12.3526 36.3533 12.5216C36.3743 12.8636 36.6683 13.1246 37.0113 13.1036C37.1833 13.0936 37.3443 13.0116 37.4533 12.8776C37.5623 12.7156 37.5963 12.5146 37.5463 12.3256C37.5063 12.1556 37.4063 12.0056 37.2633 11.9046Z" fill="#EE2141"/>
<path d="M33.2583 11.9656C33.3583 12.5476 33.9843 12.8506 34.3583 12.3316C34.4743 12.1436 34.5143 11.9176 34.4693 11.7006C34.4323 11.4916 34.3153 11.3046 34.1423 11.1806C33.6733 10.8636 33.1433 11.3346 33.2583 11.9656Z" fill="#EE2141"/>
<path d="M31.6983 11.0336C31.6963 10.8466 31.6093 10.6716 31.4623 10.5566C31.1623 10.3786 30.8413 10.8356 30.9403 11.3106C31.0153 11.6706 31.3403 11.9046 31.6013 11.5266C31.6833 11.3756 31.7173 11.2036 31.6983 11.0336Z" fill="#EE2141"/>
<path d="M29.6913 9.56556C29.4463 9.40956 29.1913 10.1926 29.3273 10.6816C29.3803 10.8816 29.5273 11.0536 29.7273 10.7256C29.8093 10.5546 29.8543 10.3676 29.8603 10.1776C29.8933 9.95856 29.8323 9.73656 29.6913 9.56556Z" fill="#EE2141"/>
<path d="M28.7243 9.64754C28.7543 9.70254 28.8013 9.58455 28.8193 9.54055C28.8713 9.39655 28.9113 9.24854 28.9383 9.09754C28.9913 8.82054 29.0193 8.52955 28.9703 8.52155C28.7863 8.86755 28.7013 9.25654 28.7243 9.64754Z" fill="#EE2141"/>
<path d="M47.7733 11.8056C48.0033 11.4546 48.0983 11.0336 48.0403 10.6186C47.9983 10.1616 47.7613 9.74658 47.3893 9.47858C46.5383 8.92858 45.5893 9.84658 45.7783 11.0396C45.9533 12.1306 47.0533 12.7386 47.7733 11.8056Z" fill="#EE2141"/>
<path d="M44.8683 10.9195C45.0773 10.6185 45.1503 10.2435 45.0683 9.88654C44.9983 9.56354 44.8133 9.27754 44.5483 9.07954C44.0653 8.71854 43.3803 8.81654 43.0183 9.30054C42.8223 9.56254 42.7543 9.89854 42.8323 10.2155C42.8513 10.8515 43.3813 11.3515 44.0183 11.3335C44.3473 11.3235 44.6573 11.1725 44.8683 10.9195Z" fill="#EE2141"/>
<path d="M41.2903 10.0226C41.4293 9.82856 41.4763 9.58356 41.4173 9.35156C41.3673 9.17656 41.2643 9.02056 41.1223 8.90656C40.8043 8.64256 40.3323 8.68656 40.0693 9.00456C39.9303 9.17156 39.8713 9.39156 39.9073 9.60656C39.9463 10.0346 40.3243 10.3506 40.7513 10.3126C40.9633 10.2926 41.1573 10.1886 41.2903 10.0226Z" fill="#EE2141"/>
<path d="M37.9653 9.48454C38.1053 9.29954 38.1573 9.06255 38.1093 8.83555C38.0723 8.66655 37.9813 8.51454 37.8503 8.40254C37.5283 8.15154 37.0633 8.20955 36.8123 8.53055C36.6903 8.68655 36.6363 8.88654 36.6633 9.08354C36.6773 9.48054 37.0113 9.79155 37.4083 9.77655C37.6283 9.76855 37.8323 9.66055 37.9633 9.48355L37.9653 9.48454Z" fill="#EE2141"/>
<path d="M34.8153 7.93159C34.4353 7.60859 33.8753 8.01659 33.9073 8.59459C33.8933 8.87859 34.1123 9.12059 34.3963 9.13459C34.5823 9.14359 34.7583 9.05159 34.8573 8.89459C34.9763 8.73659 35.0323 8.53959 35.0153 8.34259C35.0023 8.18559 34.9313 8.03859 34.8153 7.93159Z" fill="#EE2141"/>
<path d="M32.4523 7.24256C32.1273 6.97556 31.6073 7.57456 31.6603 8.14256C31.7043 8.54856 32.0603 8.70856 32.3943 8.31256C32.5183 8.14656 32.5913 7.94856 32.6063 7.74256C32.6353 7.56156 32.5783 7.37656 32.4523 7.24256Z" fill="#EE2141"/>
<path d="M30.8843 6.51455C30.6743 6.31455 30.2153 7.07055 30.2633 7.53355C30.2813 7.70755 30.4073 7.86355 30.6633 7.54555C30.7753 7.39355 30.8563 7.22155 30.9043 7.03855C30.9803 6.87055 30.9723 6.67655 30.8843 6.51455Z" fill="#EE2141"/>
<path d="M29.8893 6.71059C30.0123 6.52959 30.1183 6.33859 30.2063 6.13859C30.3473 5.83159 30.4673 5.48559 30.4063 5.45059C30.2673 5.35759 29.6143 6.61458 29.6723 6.85058C29.6953 6.92758 29.7693 6.87659 29.8893 6.71059Z" fill="#EE2141"/>
<path d="M50.8883 8.96758C50.8703 8.88258 50.8583 8.82357 50.8523 8.80157L50.8883 8.96758Z" fill="#EE2141"/>
<path d="M50.8883 8.96758C50.9123 9.08658 50.9443 9.25859 50.9763 9.46059C50.9663 9.39359 50.9563 9.32159 50.9443 9.24459L50.8883 8.96758Z" fill="#EE2141"/>
<path d="M51.0423 9.89655C51.0403 9.93055 51.0433 9.96355 51.0523 9.99655C51.0503 9.94955 51.0443 9.90355 51.0363 9.85755V9.89955C51.0163 9.74555 50.9943 9.59955 50.9713 9.46255C50.9813 9.52155 50.9893 9.57755 50.9973 9.62855C50.9423 9.26855 50.8653 8.91055 50.7673 8.55955V8.58255C50.7733 8.49355 50.7613 8.40455 50.7313 8.32155V8.30755L50.5633 7.75955C50.3693 7.17455 50.1273 6.60555 49.8413 6.05955C49.6953 5.78455 49.4753 5.42855 49.3153 5.15955C49.2893 5.12355 49.2603 5.07855 49.2263 5.03255L49.2463 5.06055L49.1873 4.97755L49.2263 5.03255L48.8793 4.55155C48.5253 4.07955 48.1353 3.63555 47.7133 3.22355L47.4133 2.94055C48.0163 3.54355 48.5783 4.18655 49.0953 4.86555C49.0673 4.82855 49.0363 4.79555 49.0023 4.76555L48.9743 4.78155C48.9923 4.92755 49.0293 5.07055 49.0853 5.20655C48.6243 4.49655 48.0323 3.95555 47.7163 3.96155C47.1863 3.97355 47.8093 5.54455 48.7053 6.46655C49.0283 6.79855 49.6413 7.25855 49.6413 6.57555C49.6433 6.53355 49.6383 6.49255 49.6253 6.45255C49.6613 6.57055 49.7053 6.68555 49.7563 6.79855C49.8413 6.98055 49.9683 7.25155 50.1063 7.52855C50.0023 7.76355 49.9563 8.02055 49.9693 8.27655C49.8633 7.71855 49.5263 7.23255 49.0413 6.93655C48.4303 6.75455 48.2873 7.95755 48.7943 9.04555C49.1663 9.84555 49.7663 10.2526 50.0313 9.54555L50.0553 9.44555C50.1043 9.79955 50.1713 10.1506 50.2553 10.4966C50.2553 10.5016 50.2553 10.5076 50.2553 10.5126C50.1303 10.6526 50.0313 10.8136 49.9623 10.9876C49.9123 10.6076 49.7213 10.2606 49.4263 10.0156C48.6683 9.52255 47.9263 10.9376 48.2263 12.3156C48.2843 12.6276 48.4223 12.9196 48.6263 13.1626L48.5903 13.1246C47.7293 13.1876 47.0903 14.4976 47.1673 15.5246C47.1753 15.6326 47.1913 15.7396 47.2163 15.8456C46.9103 15.9806 46.6393 16.1836 46.4243 16.4396C46.4253 16.4506 46.4253 16.4606 46.4243 16.4716C46.4083 16.2216 46.2983 15.9866 46.1153 15.8146C45.4053 15.1796 43.9643 16.0736 44.0153 17.4096C44.0473 18.2866 44.7853 18.9456 45.6363 18.2286H45.6483C45.6323 18.2686 45.6263 18.3116 45.6283 18.3536C45.6133 18.6056 45.6433 18.8576 45.7173 19.0996C45.7173 19.0816 45.7013 19.0656 45.6953 19.0486C45.1663 19.3926 44.8073 19.9446 44.7063 20.5666C44.7063 20.5666 44.2193 20.7876 44.2133 20.9376C44.2123 20.9446 44.2123 20.9516 44.2133 20.9586C44.2353 20.8376 44.2023 20.7126 44.1243 20.6186C44.0813 20.5716 44.0263 20.5366 43.9663 20.5186C44.2163 20.5306 44.4563 20.4256 44.6173 20.2356C44.8383 20.0146 44.9993 19.7426 45.0863 19.4436C45.1793 19.1846 45.1313 18.8946 44.9593 18.6796C44.5023 18.2306 43.4833 18.7906 43.4593 19.6936C43.4363 20.0236 43.6063 20.3386 43.8963 20.4986C43.4523 20.4576 43.0593 20.7836 43.0183 21.2276C43.0183 21.2316 43.0183 21.2336 43.0173 21.2376C43.0173 21.4036 43.2273 22.0286 43.6423 21.8006H43.6563C43.6343 21.8356 43.6153 21.8726 43.6013 21.9116C43.5553 21.9416 43.5123 21.9786 43.4763 22.0196C43.4923 21.9966 43.4993 21.9666 43.4963 21.9376C43.4723 21.8286 43.2763 21.8516 43.2113 21.9376C43.1463 22.0216 43.2533 22.1096 43.3933 22.0886C43.4143 22.0766 43.4343 22.0616 43.4503 22.0426C43.4333 22.0606 43.4143 22.0756 43.3933 22.0886L43.4443 22.0676L43.3983 22.0846L43.5203 22.0426H43.5363L43.5683 22.0306H43.5883L43.6373 22.0116H43.6553L43.5883 22.0356L43.6433 22.0156H43.6553L43.7103 21.9936L43.7583 21.9746C43.7963 21.9606 43.8373 21.9476 43.8793 21.9286L43.9253 21.9126L44.1623 21.8116L44.1903 21.7996C44.2183 21.7876 44.2453 21.7786 44.2733 21.7646L44.3073 21.7496L44.3963 21.7096H44.4123C44.4173 21.7086 44.4223 21.7086 44.4283 21.7096L44.4583 21.6976L44.4303 21.7096H44.4503L44.4843 21.6956L44.5993 21.6426L44.5143 21.6816L44.6793 21.6046L44.7343 21.5636L44.9833 21.4406C45.0923 21.3856 45.1993 21.3306 45.3473 21.2416L45.3693 21.2296H45.3893L45.4093 21.2166L45.4963 21.1676C45.9173 20.9046 46.4623 20.5326 46.8613 20.2416L47.1613 19.9986C47.2883 19.8856 47.4383 19.7476 47.6023 19.5886L47.2813 19.8896C47.4183 19.7626 47.5483 19.6316 47.6593 19.5166C47.6853 19.5026 47.7083 19.4826 47.7263 19.4596L47.7423 19.4476L47.6023 19.5876C47.8023 19.4016 48.0023 19.2096 48.1523 19.0456C48.4423 18.7366 48.7063 18.4066 48.9443 18.0566C49.0013 17.9796 49.0633 17.8966 49.1263 17.8056L49.2263 17.6666L49.2933 17.5596C49.3823 17.4246 49.4733 17.2786 49.5663 17.1226L49.5983 17.0716C49.6263 17.0256 49.6613 16.9646 49.6853 16.9196L49.7623 16.7806L49.7743 16.7586V16.7496L49.8693 16.5656C49.9363 16.4366 49.9963 16.3146 50.0433 16.2196L49.9803 16.3406C49.9983 16.3066 50.0143 16.2716 50.0313 16.2336L50.0773 16.1486L50.1213 16.0576L50.1333 16.0336C50.3193 15.5866 50.5413 14.9806 50.6953 14.5196C50.7843 14.2026 50.8793 13.7716 50.9523 13.4506V13.4326L51.0523 12.8116C51.1323 12.2256 51.1623 11.6336 51.1433 11.0426C51.1353 10.6586 51.1013 10.2756 51.0423 9.89655ZM49.3543 5.66955V5.67955L49.3643 5.69755C49.3623 5.68855 49.3593 5.67955 49.3543 5.67155V5.66955ZM50.0883 8.88355C50.0893 8.89455 50.0893 8.90455 50.0883 8.91555V8.94955C50.0913 8.92855 50.0913 8.90755 50.0883 8.88655V8.88355ZM43.4343 22.0846C43.5253 22.0486 43.6103 22.0116 43.6913 21.9716C43.6103 22.0146 43.5263 22.0526 43.4403 22.0846H43.4343ZM44.1883 21.8016L44.0773 21.8476L44.0513 21.8596L43.9513 21.9006L44.2303 21.7876L44.1883 21.8016ZM44.4883 21.6686H44.4483L44.4883 21.6496L44.3633 21.7056L44.5813 21.6046H44.5933L44.4883 21.6686ZM45.9553 20.7246L45.8843 20.7896L45.9593 20.7206L45.9553 20.7246ZM47.8573 19.3066L47.8693 19.2906L47.8993 19.2606L47.8573 19.3066ZM49.5213 13.1726C49.5093 13.4006 49.5093 13.6286 49.5213 13.8556V13.8156C49.4203 13.9136 49.3293 14.0206 49.2483 14.1346C49.2503 13.8786 49.1813 13.6266 49.0483 13.4066C49.2363 13.4006 49.4103 13.3116 49.5253 13.1636C49.5253 13.1666 49.5253 13.1696 49.5253 13.1736L49.5213 13.1726ZM49.9823 16.3036C49.9823 16.2916 50.0003 16.2796 50.0103 16.2616C50.0053 16.2766 49.9983 16.2906 49.9903 16.3036H49.9823ZM50.7263 13.8636C50.7303 13.8426 50.7363 13.8206 50.7463 13.8006C50.7363 13.8176 50.7293 13.8356 50.7243 13.8536L50.7263 13.8636ZM50.4813 8.23955C50.5493 8.37755 50.6383 8.50355 50.7463 8.61355C50.6363 8.50155 50.5463 8.37155 50.4813 8.22955V8.23955ZM50.9543 13.4286C50.9543 13.3776 50.9683 13.3056 50.9743 13.2286C50.9743 13.2816 50.9623 13.3576 50.9543 13.4166V13.4286Z" fill="#EE2141"/>
<path d="M47.1283 6.32058C46.4043 5.99058 45.8853 6.68458 46.1843 7.58158C46.5013 8.52958 47.5473 9.08158 47.9653 8.29758C48.0893 7.97358 48.0843 7.61358 47.9513 7.29258C47.8113 6.87558 47.5163 6.52758 47.1283 6.32058Z" fill="#EE2141"/>
<path d="M44.6023 6.01758C43.8663 5.50258 43.0333 5.92658 43.1633 6.74958C43.3043 7.61858 44.4633 8.17258 45.0073 7.40658C45.1563 7.15358 45.1743 6.84358 45.0553 6.57558C44.9603 6.35058 44.8023 6.15758 44.6023 6.01758Z" fill="#EE2141"/>
<path d="M41.6383 6.76956C41.7713 6.57556 41.7993 6.32956 41.7133 6.11056C41.6543 5.95956 41.5553 5.82656 41.4283 5.72656C41.1363 5.42656 40.6563 5.42056 40.3563 5.71256C40.2003 5.86456 40.1173 6.07656 40.1283 6.29456C40.1793 6.76956 40.6063 7.11156 41.0803 7.06056C41.2963 7.03756 41.4953 6.93356 41.6383 6.76956Z" fill="#EE2141"/>
<path d="M38.3893 5.34458C38.0833 5.06958 37.6113 5.09458 37.3363 5.40158C37.0613 5.70758 37.0863 6.17958 37.3923 6.45458C37.6983 6.72958 38.1703 6.70458 38.4463 6.39858C38.4613 6.38158 38.4763 6.36358 38.4893 6.34458C38.6283 6.16458 38.6763 5.92958 38.6183 5.70958C38.5783 5.56858 38.4993 5.44158 38.3893 5.34458Z" fill="#EE2141"/>
<path d="M35.6413 4.9316C35.2593 4.6146 34.6633 5.0686 34.7053 5.6456C34.7373 6.1046 35.2493 6.3026 35.6493 5.8656C35.7743 5.7136 35.8383 5.5196 35.8293 5.3236C35.8223 5.1726 35.7543 5.0316 35.6413 4.9316Z" fill="#EE2141"/>
<path d="M33.4873 5.37357C33.6173 5.22757 33.7033 5.05057 33.7383 4.85857C33.7803 4.70257 33.7433 4.53657 33.6383 4.41357C33.3673 4.16857 32.8053 4.76956 32.8253 5.28456C32.8483 5.61556 33.1503 5.72257 33.4873 5.37357Z" fill="#EE2141"/>
<path d="M31.7183 4.80858C31.7183 4.95858 31.8373 5.04558 32.1183 4.77058C32.2563 4.62658 32.3703 4.46258 32.4563 4.28358C32.5563 4.05958 32.5983 3.86558 32.5473 3.79858C32.3873 3.60558 31.7283 4.42758 31.7183 4.80858Z" fill="#EE2141"/>
<path d="M31.6043 4.05857C31.7523 3.91057 31.8903 3.75257 32.0163 3.58557C32.1073 3.47057 32.4003 3.09057 32.3723 3.03957C32.2263 3.00157 31.3573 3.99957 31.3723 4.18557C31.3763 4.24457 31.4633 4.20057 31.6043 4.05857Z" fill="#EE2141"/>
<path d="M46.0833 3.45456C45.4103 3.25456 45.1573 3.76356 45.5653 4.51156C46.0873 5.47156 47.3903 6.12856 47.5973 5.34256C47.6233 4.99856 47.5123 4.65756 47.2883 4.39456C46.9913 3.96556 46.5713 3.63756 46.0833 3.45456Z" fill="#EE2141"/>
<path d="M42.6833 3.84058C42.9423 4.75058 44.4643 5.40958 44.8913 4.58258C44.9833 4.29558 44.9143 3.98158 44.7113 3.75958C44.5383 3.53658 44.3203 3.35458 44.0703 3.22358C43.2113 2.77158 42.4733 3.09658 42.6833 3.84058Z" fill="#EE2141"/>
<path d="M41.7393 4.07058C41.8563 3.85758 41.8353 3.59458 41.6863 3.40158C41.6183 3.29958 41.5343 3.20958 41.4373 3.13458C40.7423 2.59658 39.8373 2.83458 39.9433 3.53458C40.0593 4.27558 41.2583 4.76658 41.7393 4.07058Z" fill="#EE2141"/>
<path d="M38.6063 2.80058C38.0343 2.40058 37.3243 2.76658 37.4193 3.39458C37.5073 3.83258 37.9353 4.11558 38.3723 4.02658C38.5603 3.98858 38.7273 3.88558 38.8463 3.73558C38.9703 3.55958 38.9893 3.32958 38.8953 3.13558C38.8313 2.99958 38.7313 2.88358 38.6063 2.80058Z" fill="#EE2141"/>
<path d="M36.5173 2.88456C36.5003 2.76656 36.4443 2.65756 36.3573 2.57556C35.9853 2.24156 35.4473 2.69456 35.4663 3.18356C35.4843 3.60856 35.9903 3.77756 36.3663 3.38356C36.4843 3.24656 36.5393 3.06456 36.5173 2.88456Z" fill="#EE2141"/>
<path d="M34.0373 3.0196C34.0233 3.3196 34.3183 3.3936 34.6703 3.0556C34.8063 2.9156 34.9053 2.7436 34.9573 2.5556C35.0093 2.4206 34.9953 2.2696 34.9193 2.1476C34.6883 1.8936 34.0533 2.6066 34.0373 3.0196Z" fill="#EE2141"/>
<path d="M33.7373 2.57454C33.8793 2.44954 34.0073 2.30954 34.1193 2.15854C34.2193 2.01954 34.3723 1.79654 34.3513 1.75054C34.3053 1.65054 33.4333 2.34454 33.3993 2.66654C33.3863 2.73054 33.4373 2.80154 33.7373 2.57454Z" fill="#EE2141"/>
<path d="M34.1583 1.6526C34.3973 1.4746 34.5423 1.3756 34.6583 1.2966C34.7743 1.2176 34.7473 1.2356 34.7493 1.2276C34.2493 1.4616 33.7953 1.7826 33.4073 2.1736C33.4333 2.1736 33.4923 2.1436 33.6373 2.0426C33.8143 1.9136 33.9813 1.7826 34.1583 1.6526Z" fill="#EE2141"/>
<path d="M48.1433 3.79758C47.9403 3.49958 47.7013 3.22758 47.4313 2.98858C46.7463 2.35158 46.0203 1.90858 45.9313 1.99958C45.7733 2.16758 47.6113 3.87558 48.0943 4.01058C48.2843 4.07058 48.1873 3.87858 48.1433 3.79758Z" fill="#EE2141"/>
<path d="M46.2393 2.82854C46.1243 2.55954 45.9313 2.33254 45.6853 2.17554C45.2563 1.80954 44.7283 1.57754 44.1693 1.50854C43.7693 1.55454 44.2693 2.16154 44.9313 2.60854C45.5933 3.05554 46.3183 3.25654 46.2393 2.82854Z" fill="#EE2141"/>
<path d="M43.4413 1.68956C43.0783 1.43856 42.6613 1.27456 42.2243 1.21056C41.6923 1.14756 41.5293 1.36656 41.8243 1.74456C42.3423 2.39956 43.7773 2.86256 43.8643 2.27056C43.8643 2.20056 43.8503 1.98056 43.4413 1.68956Z" fill="#EE2141"/>
<path d="M41.2193 1.96255C41.2353 1.89555 41.2823 1.69355 40.9523 1.44655C40.8223 1.35255 40.6793 1.27755 40.5293 1.22055C39.8443 0.961551 39.1583 1.05055 39.3633 1.52055C39.6263 2.13955 40.9503 2.55555 41.2193 1.96255Z" fill="#EE2141"/>
<path d="M38.7413 1.78256C38.8153 1.62456 38.7653 1.43656 38.6243 1.33556C38.5923 1.30556 38.5593 1.27656 38.5243 1.25056C38.0593 0.927556 37.2793 0.923555 37.3863 1.45056C37.4933 1.97756 38.4463 2.23556 38.7413 1.78256Z" fill="#EE2141"/>
<path d="M36.8063 1.60255C36.8903 1.49455 36.9093 1.34955 36.8523 1.22455C36.8273 1.17355 36.7933 1.12755 36.7523 1.08955C36.5803 0.918551 36.3013 0.918551 36.1303 1.09055C36.0323 1.18855 35.9863 1.32655 36.0063 1.46355C36.0243 1.84055 36.5233 1.93155 36.8063 1.60255Z" fill="#EE2141"/>
<path d="M35.2113 1.44359C35.2113 1.55459 35.3713 1.58759 35.6113 1.38459C35.7033 1.29659 35.7753 1.19059 35.8213 1.07159C35.8613 0.971589 35.8723 0.861589 35.8473 0.836589C35.7713 0.761589 35.2033 1.22259 35.2113 1.44359Z" fill="#EE2141"/>
<path d="M35.0533 1.18956C35.0733 1.20156 35.1323 1.17356 35.2533 1.08956C35.3743 1.00556 35.4963 0.923559 35.6213 0.844559C35.7623 0.752559 35.9133 0.677559 36.0723 0.622559H36.0583C35.6843 0.731559 35.3403 0.925559 35.0533 1.18956Z" fill="#EE2141"/>
<path d="M35.9943 0.658569H35.9753L35.9043 0.684569C35.6573 0.775569 35.5543 0.826569 35.5543 0.826569C35.6093 0.808569 35.6633 0.785569 35.7143 0.759569C35.7943 0.738569 35.8703 0.702569 35.9943 0.658569Z" fill="#EE2141"/>
<path d="M45.9743 1.83055C45.6533 1.63055 45.2123 1.38755 44.8803 1.20555C44.5483 1.02355 44.0453 0.83755 43.6933 0.68955C43.5133 0.62655 43.4933 0.62655 43.4793 0.62855C43.4973 0.64455 46.0613 1.98455 46.1663 1.97055C46.1103 1.91455 46.0453 1.86755 45.9743 1.83055Z" fill="#EE2141"/>
<path d="M41.8123 0.350586C42.5703 0.784586 43.3933 1.09359 44.2503 1.26459C44.3983 1.25259 44.2963 1.15559 44.2503 1.11659C44.0013 0.940586 43.7293 0.801586 43.4413 0.702586C42.9293 0.472586 42.3743 0.352586 41.8123 0.350586Z" fill="#EE2141"/>
<path d="M41.4823 0.437571C40.9873 0.274571 40.4633 0.219571 39.9463 0.275571C39.8023 0.362571 40.9043 0.746571 41.4603 0.855571C41.8763 0.936571 42.2603 0.938571 42.1333 0.748571C41.9433 0.595571 41.7203 0.489571 41.4823 0.437571Z" fill="#EE2141"/>
<path d="M39.9383 0.617599C39.9163 0.581599 39.8493 0.475599 39.4473 0.383599C39.0313 0.291599 38.6023 0.275599 38.1813 0.336599C38.0983 0.364599 38.1413 0.397599 38.1993 0.431599C38.7453 0.743599 40.0273 0.931599 39.9383 0.617599Z" fill="#EE2141"/>
<path d="M37.9343 0.608582C37.9123 0.543582 37.8193 0.493582 37.6533 0.462582C37.5053 0.435582 37.3533 0.425582 37.2023 0.432582C37.1863 0.432582 36.8023 0.444582 36.8663 0.501582C37.0303 0.654582 37.9283 0.871582 37.9343 0.608582Z" fill="#EE2141"/>
<path d="M36.2483 0.605548C36.3323 0.727548 36.5003 0.757548 36.6223 0.673548C36.6383 0.662548 36.6533 0.649548 36.6663 0.635548C36.6663 0.576548 36.6033 0.552548 36.5433 0.542548C36.4463 0.530548 36.3473 0.540548 36.2543 0.570548H36.2363C36.2383 0.582548 36.2433 0.594548 36.2483 0.605548Z" fill="#EE2141"/>
<path d="M41.5553 0.136558L41.2763 0.0965576C41.3893 0.110558 41.5003 0.128558 41.6103 0.147558L41.5553 0.136558Z" fill="#EE2141"/>
<path d="M41.6623 0.187571C41.6163 0.169571 41.5693 0.156571 41.5213 0.149571C41.2353 0.0945707 40.9463 0.0565707 40.6563 0.0355707C40.1853 -0.00842933 39.7113 -0.0114293 39.2393 0.0255707C40.2093 0.0615707 40.2093 0.0615707 40.4543 0.0825707C40.8543 0.144571 41.2573 0.179571 41.6623 0.187571Z" fill="#EE2141"/>
<path d="M39.9363 0.116551C39.9183 0.102551 39.9003 0.0985513 39.8253 0.0845513C39.5413 0.0525513 39.2553 0.0445513 38.9703 0.0605513C38.4783 0.0805513 37.9903 0.142551 37.5083 0.244551C37.8893 0.188551 38.2733 0.157551 38.6583 0.151551C39.0843 0.164551 39.5113 0.152551 39.9363 0.116551Z" fill="#EE2141"/>
<path d="M38.1673 0.229546C38.1413 0.221546 38.1153 0.218546 38.0883 0.219546C37.8423 0.222546 37.5973 0.247546 37.3563 0.294546C37.1283 0.334546 36.9503 0.379546 36.8633 0.401546C36.6873 0.447546 36.6533 0.456546 36.4973 0.501546C36.8943 0.393546 37.3013 0.325546 37.7123 0.301546C37.8663 0.292546 38.0193 0.267546 38.1673 0.226546V0.229546Z" fill="#EE2141"/>
<path d="M36.7373 0.440587C36.7143 0.438587 36.6903 0.438587 36.6663 0.440587C36.5853 0.453587 36.5053 0.474587 36.4293 0.503587L36.3893 0.515587L36.3383 0.531587H36.3223C36.4093 0.503587 36.4683 0.487587 36.6093 0.456587C36.6523 0.454587 36.6953 0.448587 36.7373 0.440587Z" fill="#EE2141"/>
<path d="M37.9933 0.144583L37.8843 0.164583C37.9453 0.152583 38.0093 0.144583 38.0723 0.134583L37.9933 0.144583Z" fill="#EE2141"/>
<path d="M38.5693 0.0645752C38.3993 0.0845752 38.2333 0.108575 38.0693 0.133575L38.5693 0.0645752Z" fill="#EE2141"/>
</svg>
